<?xml version="1.0" encoding="UTF-8" standalone="no"?>
<!--?xml version="1.0" standalone="no"?-->

<svg
   xmlns:dc="http://purl.org/dc/elements/1.1/"
   xmlns:cc="http://creativecommons.org/ns#"
   xmlns:rdf="http://www.w3.org/1999/02/22-rdf-syntax-ns#"
   xmlns:svg="http://www.w3.org/2000/svg"
   xmlns="http://www.w3.org/2000/svg"
   xmlns:sodipodi="http://sodipodi.sourceforge.net/DTD/sodipodi-0.dtd"
   xmlns:inkscape="http://www.inkscape.org/namespaces/inkscape"
   version="1.0"
   width="225.000000pt"
   height="300.000000pt"
   viewBox="0 0 225.000000 300.000000"
   preserveAspectRatio="xMidYMid meet"
   id="svg2"
   inkscape:version="0.91 r13725"
   sodipodi:docname="superman-silhouette.svg">
  <defs
     id="defs13" />
  <sodipodi:namedview
     pagecolor="#ffffff"
     bordercolor="#666666"
     borderopacity="1"
     objecttolerance="10"
     gridtolerance="10"
     guidetolerance="10"
     inkscape:pageopacity="0"
     inkscape:pageshadow="2"
     inkscape:window-width="1440"
     inkscape:window-height="805"
     id="namedview11"
     showgrid="false"
     inkscape:zoom="0.89001174"
     inkscape:cx="12.663058"
     inkscape:cy="204.94735"
     inkscape:window-x="0"
     inkscape:window-y="1"
     inkscape:window-maximized="1"
     inkscape:current-layer="svg2" />
  <metadata
     id="metadata4">
    <rdf:rdf>
      <rdf:description
         dc:title="superman silhouette"
         dc:publisher="Hiox"
         dc:date="2015-03-25"
         dc:format="image/svg+xml"
         dc:language="en">
        <dc:creator>
          <rdf:bag>
            <rdf:li>svgimages.com</rdf:li>
          </rdf:bag>
        </dc:creator>
      </rdf:description>
    </rdf:rdf>
    <rdf:RDF>
      <cc:Work
         rdf:about="">
        <dc:format>image/svg+xml</dc:format>
        <dc:type
           rdf:resource="http://purl.org/dc/dcmitype/StillImage" />
      </cc:Work>
    </rdf:RDF>
  </metadata>
  <g
     transform="translate(0.000000,300.000000) scale(0.100000,-0.100000)"
     fill="#040404"
     stroke="none"
     id="g6"
     style="fill:#333333"
     inkscape:export-filename="/Users/marek/Desktop/rangle-blogs/form-analytics/superhero-redux-beacon.png"
     inkscape:export-xdpi="90"
     inkscape:export-ydpi="90">
    <path
       d="M280 2943 c-202 -142 -230 -170 -267 -273 -15 -40 -17 -112 -5 -138 5 -9 19 -38 31 -64 46 -95 118 -134 268 -147 58 -5 110 -14 116 -20 18 -18 -5 -63 -51 -98 -50 -38 -82 -41 -143 -13 -63 28 -103 26 -134 -7 -35 -39 -48 -86 -43 -158 7 -75 34 -123 128 -220 86 -89 97 -118 80 -192 -12 -48 -12 -63 3 -119 26 -95 81 -181 147 -227 22 -16 26 -15 73 10 48 27 49 27 63 8 8 -10 14 -25 14 -32 0 -27 62 -135 101 -178 59 -64 182 -110 227 -86 12 6 29 25 39 41 20 35 29 37 38 12 9 -31 -28 -98 -83 -147 -88 -79 -107 -138 -132 -413 -11 -131 -22 -162 -82 -240 -26 -35 -48 -67 -48 -72 0 -16 -62 -80 -91 -96 -34 -17 -38 -49 -8 -65 17 -8 40 -8 98 1 61 9 82 18 107 42 22 20 46 31 80 36 43 6 49 10 52 34 2 14 -4 43 -12 63 -27 64 -20 109 33 219 26 56 69 126 95 156 46 54 66 100 66 155 0 52 20 103 48 127 40 34 79 88 112 156 16 32 46 86 67 118 21 33 47 79 58 104 11 25 26 54 33 65 l12 20 16 -20 c8 -11 26 -42 39 -70 13 -27 47 -77 74 -110 28 -33 65 -87 83 -119 18 -33 51 -79 74 -103 37 -38 42 -50 48 -105 13 -115 27 -159 61 -197 32 -35 83 -122 138 -232 l28 -56 -15 -94 c-17 -104 -12 -119 37 -119 18 0 52 -15 88 -40 52 -36 65 -40 118 -40 33 0 66 3 75 6 32 12 10 61 -34 76 -9 3 -50 57 -92 119 -83 125 -74 96 -119 384 -28 174 -46 226 -109 310 -40 54 -80 173 -90 267 -7 76 -8 78 -109 229 -56 83 -100 156 -98 162 3 11 80 37 111 37 10 0 58 26 106 58 49 31 107 68 130 82 49 29 170 154 170 174 0 26 -172 186 -200 186 -11 0 -39 17 -63 39 -23 21 -60 48 -81 59 -44 24 -56 38 -56 68 0 30 -19 45 -43 33 -15 -9 -24 -6 -48 17 -26 25 -30 26 -46 12 -10 -9 -32 -23 -50 -32 -31 -16 -33 -15 -44 6 -8 14 -13 69 -14 138 -1 132 -13 165 -69 195 -34 19 -35 19 -71 -1 -20 -10 -47 -37 -60 -59 -22 -37 -23 -46 -15 -125 10 -92 5 -154 -14 -169 -18 -15 -92 24 -124 65 -32 40 -69 45 -114 13 -16 -12 -46 -22 -66 -23 -20 -2 -54 -10 -76 -19 -54 -24 -73 -21 -90 11 -16 31 -90 103 -125 122 -12 6 -53 14 -91 17 l-69 6 -17 51 c-18 55 -81 174 -116 218 -39 50 -34 180 9 230 35 39 3 30 -67 -19z m1538 -1066 c19 -15 16 -22 -50 -92 -59 -62 -65 -66 -102 -63 -57 4 -66 26 -26 69 17 18 43 51 56 72 23 36 26 37 67 31 23 -4 48 -11 55 -17z m-776 -494 c-33 -77 -57 -123 -64 -123 -4 0 -8 16 -8 35 0 24 9 45 31 70 33 37 53 46 41 18z"
       id="node1"
       class="node"
       style="fill:#333333" />
  </g>
  <g
     transform="translate(0.000000,300.000000) scale(0.100000,-0.100000)"
     fill="#9F9F9F"
     stroke="none"
     id="g9" />
  <g
     id="g4389"
     transform="matrix(0.09347265,0,0,0.07233905,111.78289,84.715793)"
     style="fill:#ffffff"
     inkscape:export-filename="/Users/marek/Desktop/rangle-blogs/form-analytics/superhero-redux-beacon.png"
     inkscape:export-xdpi="90"
     inkscape:export-ydpi="90">
    <g
       id="g4341"
       style="fill:#ffffff">
      <g
         id="g4343"
         style="fill:#ffffff">
        <path
           id="path4345"
           d="M 315.6,315.1 C 328.2,313.8 337.7,303 337.3,290 336.9,277 326.1,266.5 313,266.5 l -0.9,0 c -13.5,0.4 -23.8,11.7 -23.5,25.1 0.4,6.5 3,12.1 7,16.1 -14.7,29.1 -37.3,50.3 -71.1,68 -23,12.1 -46.8,16.5 -70.7,13.5 -19.5,-2.6 -34.7,-11.2 -44.2,-25.6 -13.9,-21.2 -15.2,-44.2 -3.5,-67.2 8.2,-16.5 21.2,-28.6 29.5,-34.7 -1.7,-5.6 -4.4,-15.2 -5.6,-22.1 -62.9,45.5 -56.4,107.1 -37.3,136.2 14.3,21.8 43.3,35.2 75.4,35.2 8.6,0 17.3,-0.9 26,-3 55.6,-11 97.6,-43.9 121.5,-92.9 z"
           inkscape:connector-curvature="0"
           style="fill:#ffffff" />
      </g>
      <g
         id="g4347"
         style="fill:#ffffff">
        <path
           id="path4349"
           d="m 391.9,261.3 c -33,-38.6 -81.5,-59.8 -137,-59.8 l -7,0 c -3.9,-7.9 -12.1,-13 -21.2,-13 l -0.9,0 c -13.5,0.4 -23.8,11.7 -23.5,25.1 0.4,13 11.2,23.5 24.3,23.5 l 0.9,0 c 9.5,-0.4 17.7,-6.5 21.2,-14.7 l 7.9,0 c 33,0 64.2,9.5 92.4,28.2 21.7,14.3 37.3,33 45.9,55.5 7.4,18.2 7,36 -0.9,51.2 -12.1,23 -32.6,35.6 -59.4,35.6 -17.3,0 -33.8,-5.2 -42.4,-9.1 -4.7,4.4 -13.5,11.2 -19.5,15.6 18.6,8.6 37.7,13.5 55.9,13.5 41.6,0 72.4,-23 84.1,-45.9 12.6,-25.4 11.7,-68.8 -20.8,-105.7 l 0,0 z"
           inkscape:connector-curvature="0"
           style="fill:#ffffff" />
      </g>
      <g
         id="g4351"
         style="fill:#ffffff">
        <path
           id="path4353"
           d="m 171.6,322.5 c 0.4,13 11.2,23.5 24.3,23.5 l 0.9,0 c 13.5,-0.4 23.8,-11.7 23.5,-25.1 -0.4,-13 -11.2,-23.5 -24.3,-23.5 l -0.9,0 c -0.9,0 -2.1,0 -3,0.4 -17.7,-29.5 -25.1,-61.5 -22.6,-96.2 1.7,-26 10.4,-48.6 25.6,-67.2 12.6,-16.1 36.8,-23.8 53.3,-24.3 45.9,-0.9 65.5,56.4 66.8,79.4 5.6,1.3 15.2,4.4 21.7,6.5 -5.2,-70.3 -48.6,-106.7 -90.2,-106.7 -39.1,0 -75,28.2 -89.4,69.8 -20,55.5 -7,108.8 17.3,150.9 -2.1,2.9 -3.3,7.6 -3,12.5 l 0,0 z"
           inkscape:connector-curvature="0"
           style="fill:#ffffff" />
      </g>
      <g
         id="g4355"
         style="fill:#ffffff">
        <path
           id="path4357"
           d="m 317.3,89.2 c -1.8,0 -3.7,-0.7 -5.2,-2 -18.9,-17.3 -41.5,-26.4 -65.5,-26.4 -22,0 -43.6,7.3 -62.3,21 -3.4,2.5 -8.2,1.7 -10.8,-1.6 -2.6,-3.3 -1.7,-8.2 1.6,-10.8 21.4,-15.7 46.1,-24 71.4,-24 27.5,0 54.5,10.8 75.9,30.4 3.2,2.9 3.4,7.8 0.5,11 -1.3,1.5 -3.5,2.4 -5.6,2.4 z"
           inkscape:connector-curvature="0"
           style="fill:#ffffff" />
      </g>
      <g
         id="g4359"
         style="fill:#ffffff">
        <path
           id="path4361"
           d="m 346,71.7 c -2.1,0 -4.3,-0.9 -5.8,-2.6 -0.5,-0.6 -1,-1.1 -1.5,-1.6 -0.5,-0.6 -1,-1.2 -1.4,-1.6 C 312.7,39.5 280.4,25 246.6,25 c -33.2,0 -65.7,13.4 -91.3,37.6 -3.1,2.9 -7.9,2.8 -11,-0.3 -2.9,-3.1 -2.8,-7.9 0.3,-11 28.5,-27 64.7,-41.9 102,-41.9 38.3,0 74.5,16.3 102.1,45.8 0.8,0.9 1.5,1.6 2,2.4 0.4,0.4 0.7,0.9 1.1,1.3 2.8,3.2 2.5,8 -0.7,11 -1.4,1.1 -3.3,1.8 -5.1,1.8 z"
           inkscape:connector-curvature="0"
           style="fill:#ffffff" />
      </g>
      <g
         id="g4363"
         style="fill:#ffffff">
        <path
           id="path4365"
           d="m 384.4,448.4 c -3.1,0 -6.1,-1.9 -7.3,-5 -1.5,-4 0.6,-8.4 4.6,-9.9 25.3,-9.4 46.8,-27.4 57.5,-48.4 8.7,-17.4 11.5,-39.3 7.9,-61.2 -0.7,-4.2 2.1,-8.2 6.4,-8.9 4.2,-0.7 8.1,2.1 8.9,6.4 4.2,25.3 0.9,50.4 -9.3,70.7 -12.4,24.3 -37,45.3 -65.9,55.9 -1.1,0.2 -2,0.4 -2.8,0.4 z"
           inkscape:connector-curvature="0"
           style="fill:#ffffff" />
      </g>
      <g
         id="g4367"
         style="fill:#ffffff">
        <path
           id="path4369"
           d="m 373.2,490.6 c -3.8,0 -7.1,-2.7 -7.7,-6.6 -0.7,-4.3 2.2,-8.1 6.5,-8.8 52.4,-8 86.8,-41.9 100.4,-68.4 14.2,-28.6 16,-65.9 4.6,-99.9 -1.4,-4.1 0.8,-8.4 4.8,-9.8 4,-1.4 8.4,0.8 9.8,4.8 12.8,37.8 10.8,79.6 -5.3,111.8 -9.1,17.9 -24.1,35 -42.3,48.3 -20.4,14.8 -44.4,24.7 -69.6,28.5 -0.3,0.1 -0.8,0.1 -1.2,0.1 z"
           inkscape:connector-curvature="0"
           style="fill:#ffffff" />
      </g>
      <g
         id="g4371"
         style="fill:#ffffff">
        <path
           id="path4373"
           d="m 117,448.4 c -0.8,0 -1.6,-0.1 -2.3,-0.4 C 89,439.8 67.6,424.4 54.5,404.5 39.7,382 33.2,350.9 37.2,321.3 c 0.6,-4.3 4.5,-7.2 8.7,-6.7 4.3,0.6 7.2,4.5 6.7,8.7 -3.5,26 2.1,53.1 14.9,72.6 11.1,16.9 29.6,30.1 51.9,37.3 4.1,1.3 6.3,5.6 5,9.7 -1,3.4 -4.1,5.5 -7.4,5.5 z"
           inkscape:connector-curvature="0"
           style="fill:#ffffff" />
      </g>
      <g
         id="g4375"
         style="fill:#ffffff">
        <path
           id="path4377"
           d="m 127.2,489.4 c -0.3,0 -0.7,0 -1,-0.1 C 82.7,483.8 44,461.2 22.8,428.9 12.6,413.6 5.3,393.9 2,373.4 -1.8,349.7 0,325.2 6.9,302.6 c 1.3,-4.1 5.6,-6.4 9.7,-5.1 4.1,1.3 6.4,5.6 5.1,9.7 -14.2,46.3 -1.5,90 14,113.4 18.8,28.4 53.4,48.4 92.4,53.4 4.3,0.6 7.3,4.4 6.7,8.6 -0.5,4 -3.9,6.8 -7.6,6.8 z"
           inkscape:connector-curvature="0"
           style="fill:#ffffff" />
      </g>
    </g>
    <g
       id="g4379"
       style="fill:#ffffff">
      <path
         id="path4381"
         d="M 250,250"
         stroke-miterlimit="10"
         inkscape:connector-curvature="0"
         style="fill:#ffffff;stroke:#9d89c0;stroke-width:8.34770012;stroke-linecap:round;stroke-miterlimit:10" />
    </g>
  </g>
</svg>
